<svg xmlns="http://www.w3.org/2000/svg" width="12.35cm" height="2.83cm" viewBox="0 0 350 80.16"><defs><style>.a{fill:#7b2900;}.b{fill:#bd6f51;}.c{fill:#d4a291;}</style></defs><title>logo-web</title><path class="a" d="M103.61,45.43V38h19.21V54.81c-4.51,6.05-11.36,8.83-18.83,8.83-13.09,0-23-9.08-23-22.35,0-12.66,10.31-22.35,23-22.35a23.29,23.29,0,0,1,18.15,8.52L116,32.77c-3-3.52-7.1-6.11-12-6.11-7.84,0-13.59,6.42-13.59,14.64,0,8.65,5.37,14.64,13.59,14.64a14.82,14.82,0,0,0,10-4V45.43Z"/><path class="a" d="M131.7,62.9V19.68h8.83V55.43h17.72V62.9Z"/><path class="a" d="M205.55,62.9l-2.78-8H187.4l-2.9,8h-9.82l17.66-43.23h7.16L215.74,62.9ZM190,47.65H200.3l-5-14.51h-.06Z"/><path class="a" d="M237.91,24.43a9.15,9.15,0,0,0-4.51-1.05,3.19,3.19,0,0,0-2.72,1,6.84,6.84,0,0,0-.86,4v2.1h8.09v7.29h-8.09V62.9h-8.77V37.71h-3.52V30.42h3.52V27.83c0-3.71.68-6.61,2.35-8.65,1.79-2.22,4.69-3.33,9.14-3.33a19.39,19.39,0,0,1,8.09,1.85Z"/><path class="a" d="M250.5,34.75c1.85-3,4.38-5.06,7.6-5.06a12.15,12.15,0,0,1,4.2.74l-2.1,7.66a6.51,6.51,0,0,0-3.09-.74A7.19,7.19,0,0,0,251,40.92v22h-8.77V30.42h7.6Z"/><path class="a" d="M265.32,25.91V18.44h8.77v7.47Zm0,37V30.42h8.77V62.9Z"/><path class="a" d="M308.54,59.63c-3.21,2.84-7,4-11.67,4-9.57,0-16.49-6.92-16.49-17,0-9.45,6.85-17,16.73-17a17.31,17.31,0,0,1,11.42,4L304,39.81a8.82,8.82,0,0,0-6.3-2.59c-4.94,0-8.4,4.26-8.4,9.45,0,5.43,3.64,9.45,8.27,9.45a8.37,8.37,0,0,0,6.24-2.47Z"/><path class="a" d="M333.86,62.9l-.68-2.78c-2.1,2.59-5.37,3.52-8.83,3.52-6.05,0-11.67-3.64-11.67-10.31,0-8,7.41-10.5,14.14-10.5a29,29,0,0,1,5.87.68V43c0-4.08-1.67-6.55-6.42-6.55a21.22,21.22,0,0,0-9.82,2.84L314.1,33a32.48,32.48,0,0,1,14-3.33c9,0,13.4,5.25,13.4,13.71V62.9Zm-1.17-14.14a20.29,20.29,0,0,0-4.45-.56c-3.21,0-7,1.17-7,5,0,2.84,2.35,4.32,4.94,4.32a9.55,9.55,0,0,0,6.48-2.78Z"/><circle class="a" cx="34.94" cy="41.07" r="5.11"/><path class="b" d="M31.25,57.35h0a4.72,4.72,0,0,1-3.56-5.64h0a4.71,4.71,0,0,1,5.63-3.56h0a4.72,4.72,0,0,1,3.57,5.64h0a4.73,4.73,0,0,1-4.6,3.68h0A4.85,4.85,0,0,1,31.25,57.35Zm7.48-4a4.72,4.72,0,0,1,.74-6.63h0a4.72,4.72,0,0,1,6.63.75h0a4.71,4.71,0,0,1-.74,6.62h0a4.66,4.66,0,0,1-2.94,1h0A4.72,4.72,0,0,1,38.72,53.37Zm-18.82-5h0A4.73,4.73,0,0,1,22.1,42h0a4.72,4.72,0,0,1,6.3,2.19h0a4.73,4.73,0,0,1-2.19,6.3h0a4.75,4.75,0,0,1-2,.47h0A4.72,4.72,0,0,1,19.91,48.35ZM42.2,41.07h0v0h0a4.71,4.71,0,0,1,4.69-4.73h0A4.73,4.73,0,0,1,51.63,41h0v0h0v0h0a4.73,4.73,0,0,1-4.72,4.72h0A4.72,4.72,0,0,1,42.2,41.07Zm-20.1-.92a4.71,4.71,0,0,1-2.21-6.29h0a4.71,4.71,0,0,1,6.29-2.21h0a4.71,4.71,0,0,1,2.21,6.29h0a4.71,4.71,0,0,1-4.25,2.68h0A4.74,4.74,0,0,1,22.1,40.16Zm17.34-4.78h0a4.72,4.72,0,0,1-.76-6.63h0A4.72,4.72,0,0,1,45.3,28h0a4.71,4.71,0,0,1,.76,6.62h0a4.71,4.71,0,0,1-3.7,1.79h0A4.71,4.71,0,0,1,39.44,35.38ZM27.64,30.46a4.7,4.7,0,0,1,3.53-5.65h0a4.72,4.72,0,0,1,5.66,3.53h0A4.73,4.73,0,0,1,33.3,34h0a5.06,5.06,0,0,1-1.06.12h0A4.71,4.71,0,0,1,27.64,30.46Z"/><path class="c" d="M23.17,65.82a4.72,4.72,0,0,1-2.24-6.29h0a4.72,4.72,0,0,1,6.29-2.24h0a4.71,4.71,0,0,1,2.23,6.29h0a4.7,4.7,0,0,1-4.26,2.69h0A4.69,4.69,0,0,1,23.17,65.82Zm17.46-2.29a4.71,4.71,0,0,1,2.17-6.3h0a4.71,4.71,0,0,1,6.3,2.17h0a4.7,4.7,0,0,1-2.17,6.3h0a4.64,4.64,0,0,1-2.06.48h0A4.72,4.72,0,0,1,40.63,63.53ZM8.25,47.32h0a4.73,4.73,0,0,1,3.52-5.68h0a4.73,4.73,0,0,1,5.68,3.52h0a4.71,4.71,0,0,1-3.51,5.66h0a4.79,4.79,0,0,1-1.09.13h0A4.71,4.71,0,0,1,8.25,47.32ZM56,50.64A4.71,4.71,0,0,1,52.47,45h0s0,0,0-.07h0a4.72,4.72,0,0,1,5.63-3.59h0a4.72,4.72,0,0,1,3.59,5.59h0l0,.13h0a4.71,4.71,0,0,1-4.6,3.69h0A4.77,4.77,0,0,1,56,50.64ZM14.2,30.73a4.72,4.72,0,0,1-.79-6.63h0A4.73,4.73,0,0,1,20,23.32h0A4.73,4.73,0,0,1,20.82,30h0a4.73,4.73,0,0,1-3.7,1.79h0A4.69,4.69,0,0,1,14.2,30.73Zm34.71-1a4.72,4.72,0,0,1,.71-6.64h0a4.71,4.71,0,0,1,6.63.7h0a4.72,4.72,0,0,1-.7,6.64h0a4.71,4.71,0,0,1-3,1h0A4.73,4.73,0,0,1,48.9,29.77ZM30.07,18.41a4.72,4.72,0,0,1,4.7-4.74h0a4.71,4.71,0,0,1,4.73,4.69h0a4.72,4.72,0,0,1-4.69,4.74h0A4.73,4.73,0,0,1,30.07,18.41Z"/></svg>